<svg width="3236" height="1981" viewBox="0 0 3236 1981" fill="none" xmlns="http://www.w3.org/2000/svg">
<path d="M-19.6963 -17.8535L3262.18 2.22914L3353.51 623.993L3346.74 1730.83C3345.33 1960.06 3385.17 2252.03 3248.91 2172.13C2154.04 1919.7 851.409 2157.46 851.409 2157.46C481.194 2173.55 55.2996 2057.99 -30.2704 1710.16L-27.3677 1235.8L-24.9488 840.506L-21.7696 320.973L-19.6963 -17.8535Z" fill="#B2E2E6"/>
<path d="M3297.34 88.3345C3347.38 169.353 3337.73 1746.92 3336.56 1937.23C2971.42 2172.87 2093.75 1965.26 1537.23 1834.87C750.761 1601.99 125.747 2205.25 24.9589 1672.38C-143.474 781.857 20.1201 61.9365 78.3104 25.4971C949.235 30.8265 3206.09 -59.4057 3297.34 88.3345Z" fill="#A8D4B9"/>
<path d="M3271.3 893.148C2819.04 1284.51 3558.42 1861.35 2260.1 1985.36C2747.89 2073.74 2970.9 2074.64 3264.68 1975.98L3271.3 893.148Z" fill="#A7B5DA"/>
<path d="M8.61842 1126.53C127.495 1132.59 69.4542 511.101 273.846 292.345C502.805 66.2823 825.319 47.238 1206.07 10.0366C1586.82 -27.1648 -25.8201 -46.9998 -25.8201 -46.9998L8.61842 1126.53Z" fill="#F0B1C2"/>
<path d="M2403.12 0.000244141C2862.59 40.4134 3196.54 245.948 3241.77 678.575L3271.15 5.31196L2403.12 0.000244141Z" fill="#FDFDFF"/>
</svg>
